<svg xmlns="http://www.w3.org/2000/svg" viewBox="0 0 1000.0 1000.0">
  <g transform="translate(8.00,992.00) scale(1.02500,-1.02500)"><path d="M500 360Q542 360 571.0 389.0Q600 418 600 460V680H680Q697 680 708.5 691.5Q720 703 720 720Q720 737 708.5 748.5Q697 760 680 760H600Q583 760 571.5 748.5Q560 737 560 720V540Q547 550 532.0 555.0Q517 560 500 560Q458 560 429.0 531.0Q400 502 400 460Q400 418 429.0 389.0Q458 360 500 360ZM320 240Q287 240 263.5 263.5Q240 287 240 320V800Q240 833 263.5 856.5Q287 880 320 880H800Q833 880 856.5 856.5Q880 833 880 800V320Q880 287 856.5 263.5Q833 240 800 240ZM320 320H800Q800 320 800.0 320.0Q800 320 800 320V800Q800 800 800.0 800.0Q800 800 800 800H320Q320 800 320.0 800.0Q320 800 320 800V320Q320 320 320.0 320.0Q320 320 320 320ZM160 80Q127 80 103.5 103.5Q80 127 80 160V680Q80 697 91.5 708.5Q103 720 120 720Q137 720 148.5 708.5Q160 697 160 680V160Q160 160 160.0 160.0Q160 160 160 160H680Q697 160 708.5 148.5Q720 137 720 120Q720 103 708.5 91.5Q697 80 680 80ZM320 800H800Q800 800 800.0 800.0Q800 800 800 800V320Q800 320 800.0 320.0Q800 320 800 320H320Q320 320 320.0 320.0Q320 320 320 320V800Q320 800 320.0 800.0Q320 800 320 800Z" fill="#6d28d9"/></g>
</svg>
